<svg width="100" height="100" viewBox="0 0 100 100" xmlns="http://www.w3.org/2000/svg">
  <defs>
    <radialGradient id="bg1" cx="50%" cy="30%" r="70%">
      <stop offset="0%" style="stop-color:#FFE4E1"/>
      <stop offset="100%" style="stop-color:#FFC0CB"/>
    </radialGradient>
  </defs>
  
  <!-- Background -->
  <circle cx="50" cy="50" r="50" fill="url(#bg1)"/>
  
  <!-- Hair -->
  <ellipse cx="50" cy="35" rx="25" ry="20" fill="#8B4513"/>
  <ellipse cx="50" cy="30" rx="22" ry="18" fill="#A0522D"/>
  
  <!-- Face -->
  <circle cx="50" cy="50" r="18" fill="#FDBCB4"/>
  
  <!-- Eyes -->
  <ellipse cx="45" cy="47" rx="2" ry="3" fill="white"/>
  <ellipse cx="55" cy="47" rx="2" ry="3" fill="white"/>
  <circle cx="45" cy="47" r="1.5" fill="#4A4A4A"/>
  <circle cx="55" cy="47" r="1.5" fill="#4A4A4A"/>
  <circle cx="45.5" cy="46.5" r="0.5" fill="white"/>
  <circle cx="55.5" cy="46.5" r="0.5" fill="white"/>
  
  <!-- Eyebrows -->
  <ellipse cx="45" cy="43" rx="3" ry="1" fill="#654321"/>
  <ellipse cx="55" cy="43" rx="3" ry="1" fill="#654321"/>
  
  <!-- Nose -->
  <ellipse cx="50" cy="52" rx="1" ry="2" fill="#F4A460"/>
  
  <!-- Mouth -->
  <ellipse cx="50" cy="57" rx="3" ry="2" fill="#FF6B6B"/>
  <ellipse cx="50" cy="56" rx="2" ry="1" fill="#FF8E8E"/>
  
  <!-- Earrings -->
  <circle cx="33" cy="52" r="2" fill="#FFD700"/>
  <circle cx="67" cy="52" r="2" fill="#FFD700"/>
  
  <!-- Name indicator -->
  <text x="50" y="85" text-anchor="middle" font-family="Arial, sans-serif" font-size="8" fill="#495E57" font-weight="bold">MARIA</text>
</svg>
