<svg width="100" height="100" viewBox="0 0 100 100" xmlns="http://www.w3.org/2000/svg">
  <defs>
    <radialGradient id="bg2" cx="50%" cy="30%" r="70%">
      <stop offset="0%" style="stop-color:#E6F3FF"/>
      <stop offset="100%" style="stop-color:#B3D9FF"/>
    </radialGradient>
  </defs>
  
  <!-- Background -->
  <circle cx="50" cy="50" r="50" fill="url(#bg2)"/>
  
  <!-- Hair -->
  <ellipse cx="50" cy="32" rx="24" ry="18" fill="#4A4A4A"/>
  <ellipse cx="50" cy="28" rx="20" ry="15" fill="#2F2F2F"/>
  
  <!-- Face -->
  <circle cx="50" cy="50" r="18" fill="#FDBCB4"/>
  
  <!-- Eyes -->
  <ellipse cx="45" cy="47" rx="2" ry="3" fill="white"/>
  <ellipse cx="55" cy="47" rx="2" ry="3" fill="white"/>
  <circle cx="45" cy="47" r="1.5" fill="#1E90FF"/>
  <circle cx="55" cy="47" r="1.5" fill="#1E90FF"/>
  <circle cx="45.5" cy="46.5" r="0.5" fill="white"/>
  <circle cx="55.5" cy="46.5" r="0.5" fill="white"/>
  
  <!-- Eyebrows -->
  <ellipse cx="45" cy="43" rx="3" ry="1" fill="#2F2F2F"/>
  <ellipse cx="55" cy="43" rx="3" ry="1" fill="#2F2F2F"/>
  
  <!-- Nose -->
  <ellipse cx="50" cy="52" rx="1" ry="2" fill="#E6B894"/>
  
  <!-- Mouth -->
  <ellipse cx="50" cy="57" rx="3" ry="2" fill="#FF6B6B"/>
  <ellipse cx="50" cy="56" rx="2" ry="1" fill="#FF8E8E"/>
  
  <!-- Glasses -->
  <circle cx="45" cy="47" r="6" fill="none" stroke="#2F2F2F" stroke-width="1"/>
  <circle cx="55" cy="47" r="6" fill="none" stroke="#2F2F2F" stroke-width="1"/>
  <line x1="51" y1="47" x2="49" y2="47" stroke="#2F2F2F" stroke-width="1"/>
  
  <!-- Shirt/Collar -->
  <path d="M 35 68 Q 50 70 65 68 L 65 75 Q 50 78 35 75 Z" fill="#495E57"/>
  
  <!-- Name indicator -->
  <text x="50" y="85" text-anchor="middle" font-family="Arial, sans-serif" font-size="8" fill="#495E57" font-weight="bold">JOHN</text>
</svg>
