<svg width="100" height="100" viewBox="0 0 100 100" xmlns="http://www.w3.org/2000/svg">
  <defs>
    <radialGradient id="bg3" cx="50%" cy="30%" r="70%">
      <stop offset="0%" style="stop-color:#F0F8E8"/>
      <stop offset="100%" style="stop-color:#D4EDDA"/>
    </radialGradient>
  </defs>
  
  <!-- Background -->
  <circle cx="50" cy="50" r="50" fill="url(#bg3)"/>
  
  <!-- Hair -->
  <ellipse cx="50" cy="35" rx="26" ry="22" fill="#FF6347"/>
  <ellipse cx="50" cy="30" rx="23" ry="19" fill="#FF7F50"/>
  <!-- Hair highlights -->
  <ellipse cx="45" cy="32" rx="8" ry="6" fill="#FFA07A" opacity="0.7"/>
  <ellipse cx="55" cy="34" rx="6" ry="4" fill="#FFA07A" opacity="0.7"/>
  
  <!-- Face -->
  <circle cx="50" cy="50" r="18" fill="#FDBCB4"/>
  
  <!-- Eyes -->
  <ellipse cx="45" cy="47" rx="2" ry="3" fill="white"/>
  <ellipse cx="55" cy="47" rx="2" ry="3" fill="white"/>
  <circle cx="45" cy="47" r="1.5" fill="#228B22"/>
  <circle cx="55" cy="47" r="1.5" fill="#228B22"/>
  <circle cx="45.5" cy="46.5" r="0.5" fill="white"/>
  <circle cx="55.5" cy="46.5" r="0.5" fill="white"/>
  
  <!-- Eyebrows -->
  <ellipse cx="45" cy="43" rx="3" ry="1" fill="#CD5C5C"/>
  <ellipse cx="55" cy="43" rx="3" ry="1" fill="#CD5C5C"/>
  
  <!-- Nose -->
  <ellipse cx="50" cy="52" rx="1" ry="2" fill="#F4A460"/>
  
  <!-- Mouth -->
  <ellipse cx="50" cy="57" rx="3" ry="2" fill="#FF6B6B"/>
  <ellipse cx="50" cy="56" rx="2" ry="1" fill="#FF8E8E"/>
  
  <!-- Freckles -->
  <circle cx="47" cy="49" r="0.5" fill="#DEB887"/>
  <circle cx="53" cy="51" r="0.5" fill="#DEB887"/>
  <circle cx="52" cy="49" r="0.5" fill="#DEB887"/>
  
  <!-- Necklace -->
  <ellipse cx="50" cy="68" rx="15" ry="3" fill="#F4CE14"/>
  <circle cx="50" cy="68" r="2" fill="#FFD700"/>
  
  <!-- Name indicator -->
  <text x="50" y="85" text-anchor="middle" font-family="Arial, sans-serif" font-size="8" fill="#495E57" font-weight="bold">SARAH</text>
</svg>
